<svg width="69" height="34" viewBox="0 0 69 34" fill="none" xmlns="http://www.w3.org/2000/svg">
<path d="M18.4613 19.1381L26.106 13.9815C27.4025 18.2314 25.8509 22.9913 21.9754 25.598C17.2285 28.7996 10.7812 27.5459 7.57875 22.793C4.37636 18.0472 5.63748 11.6015 10.3844 8.39987C13.8348 6.0766 18.1779 6.09785 21.5149 8.10948L26.361 4.84409C21.0827 0.424167 13.3176 -0.184993 7.32368 3.85244C0.0686728 8.75404 -1.85134 18.6068 3.04437 25.8601C7.94008 33.1204 17.7882 35.0328 25.0432 30.1454C31.441 25.8317 33.694 17.6789 30.782 10.8294C30.3924 9.90862 29.9106 9.00903 29.3296 8.14489C28.8762 7.472 28.3873 6.84868 27.8489 6.27493L15.436 14.6473C14.1961 15.4831 13.8702 17.1689 14.7062 18.4085C15.5423 19.641 17.2214 19.9739 18.4613 19.1381Z" fill="white"/>
<path d="M12.6515 15.4309L16.6337 21.3391C16.6833 21.4171 16.7896 21.4313 16.8605 21.3817L20.0632 19.221C20.1412 19.1714 20.1554 19.0651 20.1058 18.9943L16.1235 13.0861C16.074 13.0082 15.9676 12.994 15.8968 13.0436L12.694 15.2042C12.6232 15.2538 12.6019 15.353 12.6515 15.4309Z" fill="white"/>
<path d="M10.9872 18.5111C11.1217 18.7095 11.3978 18.7662 11.596 18.6316L13.9961 17.0088C14.1943 16.8742 14.251 16.5978 14.1164 16.3994C13.9819 16.201 13.7058 16.1443 13.5076 16.279L11.1075 17.9017C10.9093 18.0363 10.8527 18.3056 10.9872 18.5111Z" fill="white"/>
<path d="M13.2579 19.2875C13.3924 19.4859 13.6683 19.5426 13.8664 19.4079L16.2651 17.7852C16.4632 17.6506 16.5198 17.3742 16.3854 17.1758C16.251 16.9774 15.975 16.9207 15.7769 17.0553L13.3782 18.678C13.173 18.8127 13.1235 19.082 13.2579 19.2875Z" fill="white"/>
<path d="M13.149 21.7259C13.2839 21.9244 13.5609 21.981 13.7597 21.8464L16.1673 20.2237C16.3661 20.089 16.423 19.8127 16.288 19.6143C16.1531 19.4159 15.8761 19.3591 15.6773 19.4938L13.2697 21.1165C13.0637 21.2512 13.014 21.5204 13.149 21.7259Z" fill="white"/>
<path d="M17.6722 15.8291L15.9757 16.5585L16.3165 17.0967L14.7478 17.734L17.2392 17.4437L16.8843 16.9055L18.2542 16.7355L17.6722 15.8291Z" fill="#0245B8"/>
<path d="M60.5552 0.736816C56.2606 0.736816 52.778 4.21942 52.778 8.51402C52.778 12.8086 56.2606 16.2912 60.5552 16.2912C64.8514 16.2912 68.334 12.8086 68.334 8.51402C68.334 4.21942 64.8514 0.736816 60.5552 0.736816ZM60.5552 13.6034C57.7454 13.6034 55.4674 11.3239 55.4674 8.51558C55.4674 5.70571 57.7469 3.42778 60.5552 3.42778C63.3667 3.42778 65.643 5.70728 65.643 8.51558C65.643 11.3239 63.3651 13.6034 60.5552 13.6034Z" fill="white"/>
<path d="M43.9182 10.0049L48.4428 9.9893C47.8123 12.0748 45.8801 13.5955 43.5881 13.6033C40.7782 13.6127 38.4925 11.3442 38.4815 8.53274C38.4721 5.72287 40.7422 3.43712 43.5521 3.42617C45.5922 3.41834 47.357 4.61363 48.1721 6.34555L51.0383 6.33616C50.0933 3.09136 47.091 0.725815 43.5427 0.738331C39.2481 0.753976 35.7765 4.24753 35.7921 8.54369C35.8078 12.8398 39.3013 16.3099 43.5975 16.2943C47.3852 16.2818 50.5283 13.5673 51.2104 9.98148C51.3043 9.49961 51.3512 9.00053 51.3496 8.4905C51.3481 8.09311 51.3168 7.70355 51.2573 7.32337L43.9088 7.3484C43.1751 7.35153 42.5821 7.94761 42.5837 8.68137C42.5884 9.41356 43.1844 10.0065 43.9182 10.0049Z" fill="#13F2AD"/>
<path d="M68.2793 26.814C67.6488 30.4765 64.4572 33.2629 60.6132 33.2629C56.3186 33.2629 52.836 29.7803 52.836 25.4857C52.836 21.1911 56.3186 17.7085 60.6132 17.7085C64.4572 17.7085 67.6504 20.4949 68.2793 24.1574H65.5258C64.9406 21.9921 62.9631 20.3979 60.6132 20.3979C57.8033 20.3979 55.5254 22.6774 55.5254 25.4857C55.5254 28.2956 57.8049 30.5735 60.6132 30.5735C62.9631 30.5735 64.9406 28.9808 65.5258 26.814H68.2793Z" fill="#0BF1A7"/>
<path d="M43.9149 23.9899H48.441C47.8027 21.9044 45.8658 20.3915 43.5723 20.3915C40.7624 20.3915 38.4813 22.6695 38.4813 25.4825C38.4813 28.2923 40.7608 30.5734 43.5723 30.5734C45.6139 30.5734 47.3756 29.3719 48.1844 27.6368H51.0522C50.1182 30.8863 47.1221 33.2628 43.5723 33.2628C39.2761 33.2628 35.7919 29.7786 35.7919 25.4825C35.7919 21.1832 39.2761 17.7021 43.5723 17.7021C47.3615 17.7021 50.5156 20.4072 51.2102 23.9915C51.3057 24.4734 51.3542 24.9724 51.3542 25.4825C51.3542 25.8799 51.3244 26.2694 51.265 26.6496H43.9133C43.1796 26.6496 42.5835 26.0551 42.5835 25.3198C42.5866 24.5844 43.1811 23.9899 43.9149 23.9899Z" fill="white"/>
</svg>
