<svg width="127" height="21" viewBox="0 0 127 21" fill="none" xmlns="http://www.w3.org/2000/svg">
<path d="M17.7239 0.201349C19.2293 0.201349 20.507 0.349911 21.5568 0.647034C22.6264 0.92435 23.4881 1.37994 24.1418 2.0138C24.8152 2.62786 25.3005 3.43009 25.5977 4.4205C25.8948 5.41092 26.0434 6.61922 26.0434 8.04541V13.1559C26.0434 14.5821 25.8948 15.8003 25.5977 16.8106C25.3005 17.801 24.8152 18.6131 24.1418 19.247C23.4881 19.861 22.6264 20.3067 21.5568 20.584C20.507 20.8613 19.2293 21 17.7239 21H8.54278C7.03735 21 5.75972 20.8613 4.70988 20.584C3.66005 20.3067 2.79839 19.861 2.12491 19.247C1.47124 18.6131 0.985934 17.801 0.669002 16.8106C0.371879 15.8003 0.223317 14.5821 0.223317 13.1559V8.04541C0.223317 6.61922 0.371879 5.41092 0.669002 4.4205C0.985934 3.43009 1.47124 2.62786 2.12491 2.0138C2.79839 1.37994 3.66005 0.92435 4.70988 0.647034C5.75972 0.349911 7.03735 0.201349 8.54278 0.201349H17.7239ZM4.76931 12.8291C4.76931 13.6016 4.82873 14.2553 4.94758 14.7901C5.08624 15.3051 5.30413 15.7211 5.60125 16.038C5.89838 16.3352 6.29454 16.5531 6.78975 16.6917C7.30476 16.8106 7.94853 16.87 8.72105 16.87H17.5456C18.3181 16.87 18.952 16.8106 19.4472 16.6917C19.9622 16.5531 20.3683 16.3352 20.6654 16.038C20.9625 15.7211 21.1705 15.3051 21.2894 14.7901C21.428 14.2553 21.4974 13.6016 21.4974 12.8291V8.37225C21.4974 7.59973 21.428 6.95596 21.2894 6.44094C21.1705 5.90612 20.9625 5.49015 20.6654 5.19303C20.3683 4.87609 19.9622 4.6582 19.4472 4.53935C18.952 4.4007 18.3181 4.33137 17.5456 4.33137H8.72105C7.94853 4.33137 7.30476 4.4007 6.78975 4.53935C6.29454 4.6582 5.89838 4.87609 5.60125 5.19303C5.30413 5.49015 5.08624 5.90612 4.94758 6.44094C4.82873 6.95596 4.76931 7.59973 4.76931 8.37225V12.8291ZM52.4302 0.201349C52.7076 0.201349 52.8561 0.30039 52.8759 0.498472C52.9156 0.676746 52.866 0.835213 52.7274 0.973871L43.6057 10.2144L53.1433 20.2275C53.282 20.3661 53.3315 20.5345 53.2919 20.7326C53.2721 20.9109 53.1235 21 52.8462 21H48.7756C48.5379 21 48.3498 20.9703 48.2111 20.9109C48.0724 20.8514 47.9437 20.7425 47.8248 20.584L40.4859 12.8885L33.1172 20.584C32.9786 20.7425 32.8399 20.8514 32.7012 20.9109C32.5824 20.9703 32.3942 21 32.1367 21H28.2741C28.0166 21 27.868 20.9109 27.8284 20.7326C27.8086 20.5345 27.868 20.3661 28.0067 20.2275L37.7821 10.0659L28.9575 0.973871C28.8386 0.835213 28.7891 0.676746 28.8089 0.498472C28.8287 0.30039 28.9773 0.201349 29.2546 0.201349H33.3252C33.5629 0.201349 33.7511 0.240966 33.8897 0.320199C34.0284 0.379624 34.1571 0.478665 34.276 0.617322L40.7533 7.51059L47.6168 0.617322C47.7357 0.478665 47.8645 0.379624 48.0031 0.320199C48.1418 0.240966 48.3299 0.201349 48.5676 0.201349H52.4302ZM60.0849 0.201349C60.5207 0.201349 60.7386 0.41924 60.7386 0.855021V20.3463C60.7386 20.7821 60.5207 21 60.0849 21H56.876C56.4204 21 56.1926 20.7821 56.1926 20.3463V0.855021C56.1926 0.41924 56.4204 0.201349 56.876 0.201349H60.0849ZM68.9728 0.201349C69.4086 0.201349 69.6265 0.41924 69.6265 0.855021V12.7103C69.6265 13.5026 69.6859 14.1662 69.8048 14.701C69.9434 15.216 70.1613 15.632 70.4585 15.9489C70.7556 16.246 71.1517 16.4639 71.6469 16.6026C72.162 16.7214 72.8057 16.7808 73.5783 16.7808H81.8086C82.5811 16.7808 83.215 16.7214 83.7102 16.6026C84.2252 16.4639 84.6312 16.246 84.9284 15.9489C85.2255 15.632 85.4335 15.216 85.5523 14.701C85.6712 14.1662 85.7306 13.5026 85.7306 12.7103V0.855021C85.7306 0.41924 85.9485 0.201349 86.3843 0.201349H89.6229C90.0587 0.201349 90.2766 0.41924 90.2766 0.855021V13.1559C90.2766 14.5821 90.128 15.8003 89.8309 16.8106C89.5338 17.801 89.0485 18.6131 88.375 19.247C87.7213 19.861 86.8597 20.3067 85.79 20.584C84.7402 20.8613 83.4626 21 81.9571 21H73.4C71.8945 21 70.6169 20.8613 69.5671 20.584C68.5172 20.3067 67.6556 19.861 66.9821 19.247C66.3284 18.6131 65.8431 17.801 65.5262 16.8106C65.2291 15.8003 65.0805 14.5821 65.0805 13.1559V0.855021C65.0805 0.41924 65.3083 0.201349 65.7639 0.201349H68.9728ZM100.485 0.201349C100.92 0.201349 101.297 0.231062 101.614 0.290487C101.931 0.349912 102.208 0.468761 102.446 0.647034C102.683 0.8055 102.891 1.03329 103.07 1.33042C103.268 1.60773 103.466 1.98409 103.664 2.45949L109.844 16.7214C109.923 16.8997 110.062 16.9888 110.26 16.9888H110.617C110.815 16.9888 110.953 16.8997 111.033 16.7214L117.213 2.45949C117.411 1.98409 117.599 1.60773 117.777 1.33042C117.975 1.03329 118.193 0.8055 118.431 0.647034C118.669 0.468761 118.936 0.349912 119.233 0.290487C119.55 0.231062 119.926 0.201349 120.362 0.201349H123.541C124.571 0.201349 125.265 0.439048 125.621 0.914445C125.978 1.37003 126.156 2.16236 126.156 3.29144V20.3463C126.156 20.7821 125.928 21 125.473 21H122.442C122.006 21 121.788 20.7821 121.788 20.3463V4.83648C121.788 4.63839 121.709 4.53935 121.551 4.53935H121.283C121.085 4.53935 120.956 4.61859 120.897 4.77705L114.895 18.0882C114.657 18.623 114.41 19.0786 114.152 19.455C113.915 19.8115 113.647 20.1086 113.35 20.3463C113.073 20.584 112.746 20.7524 112.37 20.8514C112.013 20.9505 111.587 21 111.092 21H109.666C109.171 21 108.735 20.9505 108.358 20.8514C108.002 20.7524 107.675 20.584 107.378 20.3463C107.101 20.1086 106.833 19.8115 106.576 19.455C106.338 19.0786 106.1 18.623 105.863 18.0882L99.8607 4.77705C99.8013 4.61859 99.6725 4.53935 99.4744 4.53935H99.207C99.0486 4.53935 98.9693 4.63839 98.9693 4.83648V20.3463C98.9693 20.7821 98.7514 21 98.3156 21H95.285C94.8294 21 94.6016 20.7821 94.6016 20.3463V3.29144C94.6016 2.16236 94.7799 1.37003 95.1364 0.914445C95.493 0.439048 96.1962 0.201349 97.246 0.201349H100.485Z" fill="url(#paint0_linear_18_8068)"/>
<defs>
<linearGradient id="paint0_linear_18_8068" x1="4.5707" y1="-21.7938" x2="113.302" y2="48.0366" gradientUnits="userSpaceOnUse">
<stop stop-color="#ED5DCD"/>
<stop offset="1" stop-color="#5F5DD7" stop-opacity="0.71"/>
</linearGradient>
</defs>
</svg>
