<svg width="168" height="66" viewBox="0 0 168 66" fill="none" xmlns="http://www.w3.org/2000/svg">
<path d="M45.5259 33.1738C45.5281 34.3592 45.3054 35.4785 44.8577 36.5319C44.41 37.575 43.7986 38.4907 43.0234 39.279C42.2482 40.0571 41.3399 40.677 40.2985 41.1388C39.257 41.5903 38.1435 41.8172 36.9582 41.8194L28.2671 41.8355C27.0818 41.8377 25.9675 41.6149 24.9244 41.1672C23.8812 40.7093 22.9706 40.0928 22.1925 39.3176C21.4247 38.5321 20.815 37.6187 20.3634 36.5772C19.9118 35.5255 19.685 34.407 19.6828 33.2216L19.6668 24.5919L22.8091 24.5861L22.825 33.2158C22.8264 33.972 22.9657 34.6819 23.2428 35.3456C23.5302 35.9991 23.9195 36.5757 24.411 37.0756C24.9024 37.5651 25.4754 37.9575 26.1299 38.2526C26.7947 38.5375 27.5051 38.6844 28.2613 38.6932L31.051 38.688L31.0249 24.5709L34.1365 24.5651L34.1626 38.6823L36.9524 38.6771C37.7085 38.6655 38.4133 38.516 39.0668 38.2287C39.7305 37.9311 40.3071 37.5366 40.7967 37.0452C41.2863 36.5436 41.6735 35.9655 41.9584 35.311C42.2433 34.6463 42.3851 33.9358 42.3837 33.1796L42.3677 24.5499L45.51 24.5441L45.5259 33.1738Z" fill="#FC8229"/>
<path fill-rule="evenodd" clip-rule="evenodd" d="M45.1937 36.7229L45.1932 36.7241C44.7281 37.8077 44.0915 38.7617 43.2837 39.5832L43.282 39.5849C42.4738 40.3961 41.5276 41.0413 40.4464 41.5207L40.4437 41.5219C39.3545 41.9941 38.1917 42.2304 36.9589 42.2326L28.2678 42.2487C27.035 42.251 25.8713 42.0191 24.7804 41.5509L24.7776 41.5497C23.6947 41.0743 22.7461 40.4326 21.9349 39.6244L21.9332 39.6227L21.9315 39.621C21.1315 38.8026 20.4972 37.8516 20.0285 36.7706L20.028 36.7695C19.5563 35.6708 19.32 34.5034 19.3177 33.2705L19.3011 24.2757L23.1734 24.2686L23.1901 33.2633C23.1914 33.9728 23.3216 34.6339 23.5784 35.2501C23.8478 35.8619 24.2115 36.3999 24.6699 36.8665C25.128 37.3226 25.6628 37.6894 26.2768 37.9667C26.8938 38.2306 27.5548 38.3678 28.2631 38.3764L30.6853 38.3719L30.6592 24.2547L34.5009 24.2476L34.527 38.3648L36.9492 38.3603C37.6583 38.3491 38.3136 38.2092 38.9189 37.9432C39.5426 37.6633 40.0809 37.2944 40.5368 36.8371C40.994 36.3683 41.356 35.8282 41.6233 35.2145C41.8875 34.5978 42.02 33.937 42.0186 33.2285L42.002 24.2337L45.8743 24.2266L45.891 33.2213C45.8933 34.4542 45.6613 35.6225 45.1937 36.7229ZM39.0668 38.2769C38.4133 38.5642 37.7085 38.7137 36.9524 38.7253L34.1626 38.7305L34.1365 24.6133L31.0249 24.6191L31.051 38.7363L28.2613 38.7414C27.5051 38.7326 26.7947 38.5857 26.1299 38.3009C25.4754 38.0057 24.9024 37.6134 24.411 37.1238C23.9195 36.624 23.5302 36.0473 23.2428 35.3938C22.9657 34.7301 22.8264 34.0202 22.825 33.264L22.8091 24.6343L19.6668 24.6401L19.6828 33.2698C19.685 34.4552 19.9118 35.5737 20.3634 36.6254C20.815 37.6669 21.4247 38.5804 22.1925 39.3658C22.9706 40.141 23.8812 40.7575 24.9244 41.2154C25.9675 41.6631 27.0818 41.8859 28.2671 41.8837L36.9582 41.8676C38.1435 41.8654 39.257 41.6385 40.2985 41.187C41.3399 40.7252 42.2482 40.1053 43.0234 39.3272C43.7986 38.5389 44.41 37.6232 44.8577 36.5801C45.3054 35.5267 45.5281 34.4074 45.5259 33.222L45.51 24.5923L42.3677 24.5981L42.3837 33.2278C42.3851 33.984 42.2433 34.6945 41.9584 35.3592C41.6735 36.0137 41.2863 36.5918 40.7967 37.0934C40.3071 37.5848 39.7305 37.9793 39.0668 38.2769Z" fill="#FC8229"/>
<path d="M10.9291 45.5873C7.82721 40.2171 6.81746 33.8906 8.09359 27.8217C9.36971 21.7527 12.8418 16.3686 17.8438 12.7024C22.8458 9.03623 29.0254 7.3461 35.197 7.95628C41.3686 8.56647 47.0976 11.434 51.2848 16.0087C55.472 20.5835 57.8226 26.5432 57.8855 32.7446C57.9485 38.946 55.7194 44.9522 51.6259 49.611C47.5324 54.2698 41.8629 57.2531 35.7049 57.9884C29.547 58.7238 23.3344 57.1594 18.259 53.5956L20.4627 50.4573C24.7647 53.4781 30.0306 54.8041 35.2503 54.1808C40.4699 53.5575 45.2755 51.0288 48.7452 47.0799C52.215 43.131 54.1044 38.0399 54.051 32.7835C53.9977 27.5271 52.0053 22.4755 48.4561 18.5978C44.9069 14.7202 40.0509 12.2896 34.8197 11.7724C29.5885 11.2552 24.3506 12.6878 20.1108 15.7953C15.8709 18.9029 12.9279 23.4665 11.8462 28.6107C10.7645 33.7549 11.6204 39.1174 14.2497 43.6693L10.9291 45.5873Z" fill="#FC8229"/>
<path d="M75.9654 42.5L69.7025 23.3558H74.2971L79.7395 40.3121H77.4422L83.1308 23.3558H87.2331L92.7029 40.3121H90.4876L96.0668 23.3558H100.306L94.043 42.5H89.2843L84.4435 27.6222H85.7016L80.7241 42.5H75.9654ZM108.385 42.7188C106.817 42.7188 105.422 42.3906 104.2 41.7342C102.997 41.0779 102.04 40.1845 101.329 39.054C100.636 37.9054 100.289 36.6018 100.289 35.1432C100.289 33.6663 100.636 32.3627 101.329 31.2323C102.04 30.0836 102.997 29.1902 104.2 28.5521C105.422 27.8957 106.817 27.5675 108.385 27.5675C109.934 27.5675 111.32 27.8957 112.542 28.5521C113.763 29.1902 114.72 30.0745 115.413 31.2049C116.106 32.3353 116.453 33.6481 116.453 35.1432C116.453 36.6018 116.106 37.9054 115.413 39.054C114.72 40.1845 113.763 41.0779 112.542 41.7342C111.32 42.3906 109.934 42.7188 108.385 42.7188ZM108.385 39.2181C109.096 39.2181 109.734 39.054 110.299 38.7259C110.864 38.3977 111.311 37.9327 111.639 37.3311C111.967 36.7112 112.131 35.9819 112.131 35.1432C112.131 34.2862 111.967 33.5569 111.639 32.9553C111.311 32.3536 110.864 31.8886 110.299 31.5605C109.734 31.2323 109.096 31.0682 108.385 31.0682C107.674 31.0682 107.035 31.2323 106.47 31.5605C105.905 31.8886 105.449 32.3536 105.103 32.9553C104.775 33.5569 104.611 34.2862 104.611 35.1432C104.611 35.9819 104.775 36.7112 105.103 37.3311C105.449 37.9327 105.905 38.3977 106.47 38.7259C107.035 39.054 107.674 39.2181 108.385 39.2181ZM119.304 42.5V27.7863H123.379V31.9433L122.805 30.74C123.243 29.7007 123.945 28.9167 124.911 28.388C125.877 27.841 127.053 27.5675 128.439 27.5675V31.5058C128.257 31.4875 128.092 31.4784 127.947 31.4784C127.801 31.4602 127.646 31.4511 127.482 31.4511C126.315 31.4511 125.367 31.7884 124.637 32.463C123.926 33.1193 123.571 34.1495 123.571 35.5534V42.5H119.304ZM134.504 39.4916L134.613 34.2953L141.478 27.7863H146.564L139.973 34.4868L137.758 36.2918L134.504 39.4916ZM130.976 42.5V22.2072H135.242V42.5H130.976ZM141.943 42.5L136.965 36.3192L139.645 33.01L147.111 42.5H141.943ZM155.39 42.7188C153.822 42.7188 152.428 42.3906 151.206 41.7342C150.003 41.0779 149.046 40.1845 148.334 39.054C147.642 37.9054 147.295 36.6018 147.295 35.1432C147.295 33.6663 147.642 32.3627 148.334 31.2323C149.046 30.0836 150.003 29.1902 151.206 28.5521C152.428 27.8957 153.822 27.5675 155.39 27.5675C156.94 27.5675 158.326 27.8957 159.548 28.5521C160.769 29.1902 161.726 30.0745 162.419 31.2049C163.112 32.3353 163.458 33.6481 163.458 35.1432C163.458 36.6018 163.112 37.9054 162.419 39.054C161.726 40.1845 160.769 41.0779 159.548 41.7342C158.326 42.3906 156.94 42.7188 155.39 42.7188ZM155.39 39.2181C156.102 39.2181 156.74 39.054 157.305 38.7259C157.87 38.3977 158.317 37.9327 158.645 37.3311C158.973 36.7112 159.137 35.9819 159.137 35.1432C159.137 34.2862 158.973 33.5569 158.645 32.9553C158.317 32.3536 157.87 31.8886 157.305 31.5605C156.74 31.2323 156.102 31.0682 155.39 31.0682C154.679 31.0682 154.041 31.2323 153.476 31.5605C152.911 31.8886 152.455 32.3536 152.109 32.9553C151.78 33.5569 151.616 34.2862 151.616 35.1432C151.616 35.9819 151.78 36.7112 152.109 37.3311C152.455 37.9327 152.911 38.3977 153.476 38.7259C154.041 39.054 154.679 39.2181 155.39 39.2181Z" fill="#FC8229"/>
</svg>
